<mxfile host="Electron" modified="2024-06-17T08:24:47.180Z" agent="Mozilla/5.0 (X11; Linux x86_64) AppleWebKit/537.36 (KHTML, like Gecko) draw.io/22.0.2 Chrome/114.0.5735.289 Electron/25.8.4 Safari/537.36" etag="wJX5kdY4g32HKLuJWjJS" version="22.0.2" type="device">
  <diagram name="PÃ gina-1" id="lmB6dfngltjGG_6O6twr">
    <mxGraphModel dx="1114" dy="883" grid="1" gridSize="10" guides="1" tooltips="1" connect="1" arrows="1" fold="1" page="1" pageScale="1" pageWidth="1169" pageHeight="1654" math="0" shadow="0">
      <root>
        <mxCell id="0" />
        <mxCell id="1" parent="0" />
        <mxCell id="xwnwmIlcDGT2qT4zZngP-1" value="" style="strokeWidth=1;shadow=0;dashed=0;align=center;html=1;shape=mxgraph.mockup.forms.rrect;rSize=0;strokeColor=#999999;fillColor=#ffffff;" vertex="1" parent="1">
          <mxGeometry x="520" y="40" width="200" height="300" as="geometry" />
        </mxCell>
        <mxCell id="xwnwmIlcDGT2qT4zZngP-2" value="Sign In" style="strokeWidth=1;shadow=0;dashed=0;align=center;html=1;shape=mxgraph.mockup.forms.anchor;fontSize=12;fontColor=#666666;align=left;resizeWidth=1;spacingLeft=0;" vertex="1" parent="xwnwmIlcDGT2qT4zZngP-1">
          <mxGeometry width="100" height="20" relative="1" as="geometry">
            <mxPoint x="10" y="10" as="offset" />
          </mxGeometry>
        </mxCell>
        <mxCell id="xwnwmIlcDGT2qT4zZngP-3" value="" style="shape=line;strokeColor=#ddeeff;strokeWidth=2;html=1;resizeWidth=1;" vertex="1" parent="xwnwmIlcDGT2qT4zZngP-1">
          <mxGeometry width="180" height="10" relative="1" as="geometry">
            <mxPoint x="10" y="30" as="offset" />
          </mxGeometry>
        </mxCell>
        <mxCell id="xwnwmIlcDGT2qT4zZngP-4" value="User Email:" style="strokeWidth=1;shadow=0;dashed=0;align=center;html=1;shape=mxgraph.mockup.forms.anchor;fontSize=12;fontColor=#666666;align=left;resizeWidth=1;spacingLeft=0;" vertex="1" parent="xwnwmIlcDGT2qT4zZngP-1">
          <mxGeometry width="100" height="20" relative="1" as="geometry">
            <mxPoint x="10" y="40" as="offset" />
          </mxGeometry>
        </mxCell>
        <mxCell id="xwnwmIlcDGT2qT4zZngP-5" value="johndoe@gmail.com" style="strokeWidth=1;shadow=0;dashed=0;align=center;html=1;shape=mxgraph.mockup.forms.rrect;rSize=0;strokeColor=#999999;fontColor=#666666;align=left;spacingLeft=5;resizeWidth=1;" vertex="1" parent="xwnwmIlcDGT2qT4zZngP-1">
          <mxGeometry width="150" height="25" relative="1" as="geometry">
            <mxPoint x="10" y="60" as="offset" />
          </mxGeometry>
        </mxCell>
        <mxCell id="xwnwmIlcDGT2qT4zZngP-6" value="Password:" style="strokeWidth=1;shadow=0;dashed=0;align=center;html=1;shape=mxgraph.mockup.forms.anchor;fontSize=12;fontColor=#666666;align=left;resizeWidth=1;spacingLeft=0;" vertex="1" parent="xwnwmIlcDGT2qT4zZngP-1">
          <mxGeometry width="100" height="20" relative="1" as="geometry">
            <mxPoint x="10" y="95" as="offset" />
          </mxGeometry>
        </mxCell>
        <mxCell id="xwnwmIlcDGT2qT4zZngP-7" value="********" style="strokeWidth=1;shadow=0;dashed=0;align=center;html=1;shape=mxgraph.mockup.forms.rrect;rSize=0;strokeColor=#999999;fontColor=#666666;align=left;spacingLeft=5;resizeWidth=1;" vertex="1" parent="xwnwmIlcDGT2qT4zZngP-1">
          <mxGeometry width="150" height="25" relative="1" as="geometry">
            <mxPoint x="10" y="115" as="offset" />
          </mxGeometry>
        </mxCell>
        <mxCell id="xwnwmIlcDGT2qT4zZngP-8" value="SIGN IN" style="strokeWidth=1;shadow=0;dashed=0;align=center;html=1;shape=mxgraph.mockup.forms.rrect;rSize=5;strokeColor=none;fontColor=#ffffff;fillColor=#66bbff;fontSize=16;fontStyle=1;" vertex="1" parent="xwnwmIlcDGT2qT4zZngP-1">
          <mxGeometry y="1" width="80" height="30" relative="1" as="geometry">
            <mxPoint x="20" y="-150" as="offset" />
          </mxGeometry>
        </mxCell>
        <mxCell id="xwnwmIlcDGT2qT4zZngP-9" value="Forgot Password?" style="strokeWidth=1;shadow=0;dashed=0;align=center;html=1;shape=mxgraph.mockup.forms.anchor;fontSize=12;fontColor=#9999ff;align=left;spacingLeft=0;fontStyle=4;resizeWidth=1;" vertex="1" parent="xwnwmIlcDGT2qT4zZngP-1">
          <mxGeometry y="1" width="150" height="20" relative="1" as="geometry">
            <mxPoint x="10" y="-110" as="offset" />
          </mxGeometry>
        </mxCell>
        <mxCell id="xwnwmIlcDGT2qT4zZngP-10" value="" style="shape=line;strokeColor=#ddeeff;strokeWidth=2;html=1;resizeWidth=1;" vertex="1" parent="xwnwmIlcDGT2qT4zZngP-1">
          <mxGeometry y="1" width="180" height="10" relative="1" as="geometry">
            <mxPoint x="10" y="-90" as="offset" />
          </mxGeometry>
        </mxCell>
        <mxCell id="xwnwmIlcDGT2qT4zZngP-11" value="New User" style="strokeWidth=1;shadow=0;dashed=0;align=center;html=1;shape=mxgraph.mockup.forms.anchor;fontSize=12;fontColor=#666666;align=left;spacingLeft=0;resizeWidth=1;" vertex="1" parent="xwnwmIlcDGT2qT4zZngP-1">
          <mxGeometry y="1" width="150" height="20" relative="1" as="geometry">
            <mxPoint x="10" y="-70" as="offset" />
          </mxGeometry>
        </mxCell>
        <mxCell id="xwnwmIlcDGT2qT4zZngP-12" value="SIGN UP" style="strokeWidth=1;shadow=0;dashed=0;align=center;html=1;shape=mxgraph.mockup.forms.rrect;rSize=5;strokeColor=none;fontColor=#ffffff;fillColor=#66bbff;fontSize=16;fontStyle=1;" vertex="1" parent="xwnwmIlcDGT2qT4zZngP-1">
          <mxGeometry y="1" width="80" height="30" relative="1" as="geometry">
            <mxPoint x="20" y="-50" as="offset" />
          </mxGeometry>
        </mxCell>
        <mxCell id="xwnwmIlcDGT2qT4zZngP-13" value="" style="strokeWidth=1;shadow=0;dashed=0;align=center;html=1;shape=mxgraph.mockup.forms.rrect;rSize=0;strokeColor=#999999;fillColor=#ffffff;" vertex="1" parent="1">
          <mxGeometry x="880" y="40" width="200" height="400" as="geometry" />
        </mxCell>
        <mxCell id="xwnwmIlcDGT2qT4zZngP-20" value="SIGN UP" style="strokeWidth=1;shadow=0;dashed=0;align=center;html=1;shape=mxgraph.mockup.forms.rrect;rSize=5;strokeColor=none;fontColor=#ffffff;fillColor=#66bbff;fontSize=16;fontStyle=1;" vertex="1" parent="xwnwmIlcDGT2qT4zZngP-13">
          <mxGeometry y="1" width="80" height="30" relative="1" as="geometry">
            <mxPoint x="20" y="-150" as="offset" />
          </mxGeometry>
        </mxCell>
        <mxCell id="xwnwmIlcDGT2qT4zZngP-22" value="" style="shape=line;strokeColor=#ddeeff;strokeWidth=2;html=1;resizeWidth=1;" vertex="1" parent="xwnwmIlcDGT2qT4zZngP-13">
          <mxGeometry y="1" width="180" height="10" relative="1" as="geometry">
            <mxPoint x="10" y="-90" as="offset" />
          </mxGeometry>
        </mxCell>
        <mxCell id="xwnwmIlcDGT2qT4zZngP-23" value="Already a member?" style="strokeWidth=1;shadow=0;dashed=0;align=center;html=1;shape=mxgraph.mockup.forms.anchor;fontSize=12;fontColor=#666666;align=left;spacingLeft=0;resizeWidth=1;" vertex="1" parent="xwnwmIlcDGT2qT4zZngP-13">
          <mxGeometry y="1" width="150" height="20" relative="1" as="geometry">
            <mxPoint x="10" y="-76" as="offset" />
          </mxGeometry>
        </mxCell>
        <mxCell id="xwnwmIlcDGT2qT4zZngP-24" value="SIGN IN" style="strokeWidth=1;shadow=0;dashed=0;align=center;html=1;shape=mxgraph.mockup.forms.rrect;rSize=5;strokeColor=none;fontColor=#ffffff;fillColor=#66bbff;fontSize=16;fontStyle=1;" vertex="1" parent="xwnwmIlcDGT2qT4zZngP-13">
          <mxGeometry y="1" width="80" height="30" relative="1" as="geometry">
            <mxPoint x="20" y="-53" as="offset" />
          </mxGeometry>
        </mxCell>
        <mxCell id="xwnwmIlcDGT2qT4zZngP-31" value="" style="group" vertex="1" connectable="0" parent="xwnwmIlcDGT2qT4zZngP-13">
          <mxGeometry x="10" y="10" width="180" height="225" as="geometry" />
        </mxCell>
        <mxCell id="xwnwmIlcDGT2qT4zZngP-14" value="Sign up" style="strokeWidth=1;shadow=0;dashed=0;align=center;html=1;shape=mxgraph.mockup.forms.anchor;fontSize=12;fontColor=#666666;align=left;resizeWidth=1;spacingLeft=0;" vertex="1" parent="xwnwmIlcDGT2qT4zZngP-31">
          <mxGeometry width="100" height="20" relative="1" as="geometry">
            <mxPoint as="offset" />
          </mxGeometry>
        </mxCell>
        <mxCell id="xwnwmIlcDGT2qT4zZngP-15" value="" style="shape=line;strokeColor=#ddeeff;strokeWidth=2;html=1;resizeWidth=1;" vertex="1" parent="xwnwmIlcDGT2qT4zZngP-31">
          <mxGeometry width="180" height="10" relative="1" as="geometry">
            <mxPoint y="20" as="offset" />
          </mxGeometry>
        </mxCell>
        <mxCell id="xwnwmIlcDGT2qT4zZngP-16" value="User Email:" style="strokeWidth=1;shadow=0;dashed=0;align=center;html=1;shape=mxgraph.mockup.forms.anchor;fontSize=12;fontColor=#666666;align=left;resizeWidth=1;spacingLeft=0;" vertex="1" parent="xwnwmIlcDGT2qT4zZngP-31">
          <mxGeometry width="100" height="20" relative="1" as="geometry">
            <mxPoint y="30" as="offset" />
          </mxGeometry>
        </mxCell>
        <mxCell id="xwnwmIlcDGT2qT4zZngP-17" value="johndoe@gmail.com" style="strokeWidth=1;shadow=0;dashed=0;align=center;html=1;shape=mxgraph.mockup.forms.rrect;rSize=0;strokeColor=#999999;fontColor=#666666;align=left;spacingLeft=5;resizeWidth=1;" vertex="1" parent="xwnwmIlcDGT2qT4zZngP-31">
          <mxGeometry width="150" height="25" relative="1" as="geometry">
            <mxPoint y="50" as="offset" />
          </mxGeometry>
        </mxCell>
        <mxCell id="xwnwmIlcDGT2qT4zZngP-18" value="Password:" style="strokeWidth=1;shadow=0;dashed=0;align=center;html=1;shape=mxgraph.mockup.forms.anchor;fontSize=12;fontColor=#666666;align=left;resizeWidth=1;spacingLeft=0;" vertex="1" parent="xwnwmIlcDGT2qT4zZngP-31">
          <mxGeometry width="100" height="20" relative="1" as="geometry">
            <mxPoint y="130" as="offset" />
          </mxGeometry>
        </mxCell>
        <mxCell id="xwnwmIlcDGT2qT4zZngP-19" value="********" style="strokeWidth=1;shadow=0;dashed=0;align=center;html=1;shape=mxgraph.mockup.forms.rrect;rSize=0;strokeColor=#999999;fontColor=#666666;align=left;spacingLeft=5;resizeWidth=1;" vertex="1" parent="xwnwmIlcDGT2qT4zZngP-31">
          <mxGeometry width="150" height="25" relative="1" as="geometry">
            <mxPoint y="150" as="offset" />
          </mxGeometry>
        </mxCell>
        <mxCell id="xwnwmIlcDGT2qT4zZngP-25" value="Repeat password" style="strokeWidth=1;shadow=0;dashed=0;align=center;html=1;shape=mxgraph.mockup.forms.anchor;fontSize=12;fontColor=#666666;align=left;resizeWidth=1;spacingLeft=0;" vertex="1" parent="xwnwmIlcDGT2qT4zZngP-31">
          <mxGeometry y="180" width="100" height="20" as="geometry" />
        </mxCell>
        <mxCell id="xwnwmIlcDGT2qT4zZngP-26" value="********" style="strokeWidth=1;shadow=0;dashed=0;align=center;html=1;shape=mxgraph.mockup.forms.rrect;rSize=0;strokeColor=#999999;fontColor=#666666;align=left;spacingLeft=5;resizeWidth=1;" vertex="1" parent="xwnwmIlcDGT2qT4zZngP-31">
          <mxGeometry y="200" width="150" height="25" as="geometry" />
        </mxCell>
        <mxCell id="xwnwmIlcDGT2qT4zZngP-27" value="Repeat Email:" style="strokeWidth=1;shadow=0;dashed=0;align=center;html=1;shape=mxgraph.mockup.forms.anchor;fontSize=12;fontColor=#666666;align=left;resizeWidth=1;spacingLeft=0;" vertex="1" parent="xwnwmIlcDGT2qT4zZngP-31">
          <mxGeometry y="80" width="100" height="20" as="geometry" />
        </mxCell>
        <mxCell id="xwnwmIlcDGT2qT4zZngP-28" value="johndoe@gmail.com" style="strokeWidth=1;shadow=0;dashed=0;align=center;html=1;shape=mxgraph.mockup.forms.rrect;rSize=0;strokeColor=#999999;fontColor=#666666;align=left;spacingLeft=5;resizeWidth=1;" vertex="1" parent="xwnwmIlcDGT2qT4zZngP-31">
          <mxGeometry y="100" width="150" height="25" as="geometry" />
        </mxCell>
        <mxCell id="xwnwmIlcDGT2qT4zZngP-32" value="" style="strokeWidth=1;shadow=0;dashed=0;align=center;html=1;shape=mxgraph.mockup.forms.rrect;rSize=0;strokeColor=#999999;fillColor=#ffffff;" vertex="1" parent="1">
          <mxGeometry x="140" y="190" width="200" height="300" as="geometry" />
        </mxCell>
        <mxCell id="xwnwmIlcDGT2qT4zZngP-33" value="Reset password" style="strokeWidth=1;shadow=0;dashed=0;align=center;html=1;shape=mxgraph.mockup.forms.anchor;fontSize=12;fontColor=#666666;align=left;resizeWidth=1;spacingLeft=0;" vertex="1" parent="xwnwmIlcDGT2qT4zZngP-32">
          <mxGeometry width="100" height="20" relative="1" as="geometry">
            <mxPoint x="10" y="10" as="offset" />
          </mxGeometry>
        </mxCell>
        <mxCell id="xwnwmIlcDGT2qT4zZngP-34" value="" style="shape=line;strokeColor=#ddeeff;strokeWidth=2;html=1;resizeWidth=1;" vertex="1" parent="xwnwmIlcDGT2qT4zZngP-32">
          <mxGeometry width="180" height="10" relative="1" as="geometry">
            <mxPoint x="10" y="30" as="offset" />
          </mxGeometry>
        </mxCell>
        <mxCell id="xwnwmIlcDGT2qT4zZngP-35" value="User Name:" style="strokeWidth=1;shadow=0;dashed=0;align=center;html=1;shape=mxgraph.mockup.forms.anchor;fontSize=12;fontColor=#666666;align=left;resizeWidth=1;spacingLeft=0;" vertex="1" parent="xwnwmIlcDGT2qT4zZngP-32">
          <mxGeometry width="100" height="20" relative="1" as="geometry">
            <mxPoint x="10" y="40" as="offset" />
          </mxGeometry>
        </mxCell>
        <mxCell id="xwnwmIlcDGT2qT4zZngP-36" value="johndoe" style="strokeWidth=1;shadow=0;dashed=0;align=center;html=1;shape=mxgraph.mockup.forms.rrect;rSize=0;strokeColor=#999999;fontColor=#666666;align=left;spacingLeft=5;resizeWidth=1;" vertex="1" parent="xwnwmIlcDGT2qT4zZngP-32">
          <mxGeometry width="150" height="25" relative="1" as="geometry">
            <mxPoint x="10" y="60" as="offset" />
          </mxGeometry>
        </mxCell>
        <mxCell id="xwnwmIlcDGT2qT4zZngP-39" value="SIGN IN" style="strokeWidth=1;shadow=0;dashed=0;align=center;html=1;shape=mxgraph.mockup.forms.rrect;rSize=5;strokeColor=none;fontColor=#ffffff;fillColor=#66bbff;fontSize=16;fontStyle=1;" vertex="1" parent="xwnwmIlcDGT2qT4zZngP-32">
          <mxGeometry y="1" width="80" height="30" relative="1" as="geometry">
            <mxPoint x="20" y="-120" as="offset" />
          </mxGeometry>
        </mxCell>
        <mxCell id="xwnwmIlcDGT2qT4zZngP-41" value="" style="shape=line;strokeColor=#ddeeff;strokeWidth=2;html=1;resizeWidth=1;" vertex="1" parent="xwnwmIlcDGT2qT4zZngP-32">
          <mxGeometry y="1" width="180" height="10" relative="1" as="geometry">
            <mxPoint x="10" y="-85" as="offset" />
          </mxGeometry>
        </mxCell>
        <mxCell id="xwnwmIlcDGT2qT4zZngP-42" value="New User" style="strokeWidth=1;shadow=0;dashed=0;align=center;html=1;shape=mxgraph.mockup.forms.anchor;fontSize=12;fontColor=#666666;align=left;spacingLeft=0;resizeWidth=1;" vertex="1" parent="xwnwmIlcDGT2qT4zZngP-32">
          <mxGeometry y="1" width="150" height="20" relative="1" as="geometry">
            <mxPoint x="10" y="-70" as="offset" />
          </mxGeometry>
        </mxCell>
        <mxCell id="xwnwmIlcDGT2qT4zZngP-43" value="SIGN UP" style="strokeWidth=1;shadow=0;dashed=0;align=center;html=1;shape=mxgraph.mockup.forms.rrect;rSize=5;strokeColor=none;fontColor=#ffffff;fillColor=#66bbff;fontSize=16;fontStyle=1;" vertex="1" parent="xwnwmIlcDGT2qT4zZngP-32">
          <mxGeometry y="1" width="80" height="30" relative="1" as="geometry">
            <mxPoint x="20" y="-50" as="offset" />
          </mxGeometry>
        </mxCell>
        <mxCell id="xwnwmIlcDGT2qT4zZngP-44" value="Reset password" style="strokeWidth=1;shadow=0;dashed=0;align=center;html=1;shape=mxgraph.mockup.forms.rrect;rSize=5;strokeColor=none;fontColor=#ffffff;fillColor=#66bbff;fontSize=16;fontStyle=1;" vertex="1" parent="xwnwmIlcDGT2qT4zZngP-32">
          <mxGeometry x="10" y="100" width="140" height="30" as="geometry" />
        </mxCell>
        <mxCell id="xwnwmIlcDGT2qT4zZngP-47" value="" style="shape=line;strokeColor=#ddeeff;strokeWidth=2;html=1;resizeWidth=1;" vertex="1" parent="xwnwmIlcDGT2qT4zZngP-32">
          <mxGeometry x="10" y="140" width="180" height="10" as="geometry" />
        </mxCell>
        <mxCell id="xwnwmIlcDGT2qT4zZngP-48" value="Already a member?" style="strokeWidth=1;shadow=0;dashed=0;align=center;html=1;shape=mxgraph.mockup.forms.anchor;fontSize=12;fontColor=#666666;align=left;spacingLeft=0;resizeWidth=1;" vertex="1" parent="xwnwmIlcDGT2qT4zZngP-32">
          <mxGeometry x="10" y="154" width="150" height="20" as="geometry" />
        </mxCell>
        <mxCell id="xwnwmIlcDGT2qT4zZngP-49" value="" style="endArrow=classic;html=1;rounded=0;exitX=1.013;exitY=0.667;exitDx=0;exitDy=0;exitPerimeter=0;entryX=-0.005;entryY=0.963;entryDx=0;entryDy=0;entryPerimeter=0;" edge="1" parent="1" source="xwnwmIlcDGT2qT4zZngP-39" target="xwnwmIlcDGT2qT4zZngP-1">
          <mxGeometry width="50" height="50" relative="1" as="geometry">
            <mxPoint x="390" y="580" as="sourcePoint" />
            <mxPoint x="440" y="530" as="targetPoint" />
          </mxGeometry>
        </mxCell>
        <mxCell id="xwnwmIlcDGT2qT4zZngP-50" value="" style="endArrow=classic;html=1;rounded=0;exitX=1;exitY=0.633;exitDx=0;exitDy=0;exitPerimeter=0;entryX=0;entryY=0.725;entryDx=0;entryDy=0;entryPerimeter=0;" edge="1" parent="1" source="xwnwmIlcDGT2qT4zZngP-43" target="xwnwmIlcDGT2qT4zZngP-13">
          <mxGeometry width="50" height="50" relative="1" as="geometry">
            <mxPoint x="540" y="480" as="sourcePoint" />
            <mxPoint x="590" y="430" as="targetPoint" />
          </mxGeometry>
        </mxCell>
        <mxCell id="xwnwmIlcDGT2qT4zZngP-51" value="" style="endArrow=classic;html=1;rounded=0;exitX=0.025;exitY=0.6;exitDx=0;exitDy=0;exitPerimeter=0;entryX=1.015;entryY=0.643;entryDx=0;entryDy=0;entryPerimeter=0;" edge="1" parent="1" source="xwnwmIlcDGT2qT4zZngP-24" target="xwnwmIlcDGT2qT4zZngP-1">
          <mxGeometry width="50" height="50" relative="1" as="geometry">
            <mxPoint x="540" y="480" as="sourcePoint" />
            <mxPoint x="590" y="430" as="targetPoint" />
          </mxGeometry>
        </mxCell>
        <mxCell id="xwnwmIlcDGT2qT4zZngP-52" value="" style="endArrow=classic;html=1;rounded=0;entryX=1;entryY=0.333;entryDx=0;entryDy=0;entryPerimeter=0;" edge="1" parent="1" source="xwnwmIlcDGT2qT4zZngP-9" target="xwnwmIlcDGT2qT4zZngP-32">
          <mxGeometry width="50" height="50" relative="1" as="geometry">
            <mxPoint x="540" y="480" as="sourcePoint" />
            <mxPoint x="590" y="430" as="targetPoint" />
          </mxGeometry>
        </mxCell>
        <mxCell id="xwnwmIlcDGT2qT4zZngP-53" value="" style="endArrow=classic;html=1;rounded=0;exitX=1.013;exitY=0.633;exitDx=0;exitDy=0;exitPerimeter=0;entryX=0.005;entryY=0.48;entryDx=0;entryDy=0;entryPerimeter=0;" edge="1" parent="1" source="xwnwmIlcDGT2qT4zZngP-12" target="xwnwmIlcDGT2qT4zZngP-13">
          <mxGeometry width="50" height="50" relative="1" as="geometry">
            <mxPoint x="540" y="480" as="sourcePoint" />
            <mxPoint x="590" y="430" as="targetPoint" />
          </mxGeometry>
        </mxCell>
        <mxCell id="xwnwmIlcDGT2qT4zZngP-54" value="" style="endArrow=classic;html=1;rounded=0;exitX=0.345;exitY=1;exitDx=0;exitDy=0;exitPerimeter=0;" edge="1" parent="1" source="xwnwmIlcDGT2qT4zZngP-1" target="xwnwmIlcDGT2qT4zZngP-55">
          <mxGeometry width="50" height="50" relative="1" as="geometry">
            <mxPoint x="540" y="480" as="sourcePoint" />
            <mxPoint x="720" y="570" as="targetPoint" />
          </mxGeometry>
        </mxCell>
        <mxCell id="xwnwmIlcDGT2qT4zZngP-58" value="[ Email del Usuario no validado ]" style="edgeLabel;html=1;align=center;verticalAlign=middle;resizable=0;points=[];" vertex="1" connectable="0" parent="xwnwmIlcDGT2qT4zZngP-54">
          <mxGeometry x="-0.0545" y="3" relative="1" as="geometry">
            <mxPoint x="78" y="-8" as="offset" />
          </mxGeometry>
        </mxCell>
        <mxCell id="xwnwmIlcDGT2qT4zZngP-55" value="&lt;font style=&quot;font-size: 16px;&quot;&gt;profile (locked)&lt;/font&gt;" style="ellipse;whiteSpace=wrap;html=1;" vertex="1" parent="1">
          <mxGeometry x="700" y="590" width="120" height="80" as="geometry" />
        </mxCell>
        <mxCell id="xwnwmIlcDGT2qT4zZngP-56" value="" style="endArrow=classic;html=1;rounded=0;exitX=0.315;exitY=0.998;exitDx=0;exitDy=0;exitPerimeter=0;" edge="1" parent="1" source="xwnwmIlcDGT2qT4zZngP-13" target="xwnwmIlcDGT2qT4zZngP-55">
          <mxGeometry width="50" height="50" relative="1" as="geometry">
            <mxPoint x="540" y="480" as="sourcePoint" />
            <mxPoint x="590" y="430" as="targetPoint" />
          </mxGeometry>
        </mxCell>
        <mxCell id="xwnwmIlcDGT2qT4zZngP-59" value="" style="endArrow=classic;html=1;rounded=0;exitX=0.235;exitY=1.01;exitDx=0;exitDy=0;exitPerimeter=0;" edge="1" parent="1" source="xwnwmIlcDGT2qT4zZngP-1" target="xwnwmIlcDGT2qT4zZngP-60">
          <mxGeometry width="50" height="50" relative="1" as="geometry">
            <mxPoint x="540" y="480" as="sourcePoint" />
            <mxPoint x="490" y="600" as="targetPoint" />
          </mxGeometry>
        </mxCell>
        <mxCell id="xwnwmIlcDGT2qT4zZngP-61" value="[ Email del Usuario validado ]&lt;br&gt;[ Sin displayName ]" style="edgeLabel;html=1;align=center;verticalAlign=middle;resizable=0;points=[];" vertex="1" connectable="0" parent="xwnwmIlcDGT2qT4zZngP-59">
          <mxGeometry x="0.111" y="1" relative="1" as="geometry">
            <mxPoint x="75" y="34" as="offset" />
          </mxGeometry>
        </mxCell>
        <mxCell id="xwnwmIlcDGT2qT4zZngP-60" value="&lt;font style=&quot;font-size: 16px;&quot;&gt;profile (definir displayName)&lt;/font&gt;" style="ellipse;whiteSpace=wrap;html=1;" vertex="1" parent="1">
          <mxGeometry x="390" y="650" width="120" height="80" as="geometry" />
        </mxCell>
        <mxCell id="xwnwmIlcDGT2qT4zZngP-62" value="" style="endArrow=classic;html=1;rounded=0;exitX=0;exitY=0.5;exitDx=0;exitDy=0;entryX=1;entryY=0.4;entryDx=0;entryDy=0;entryPerimeter=0;" edge="1" parent="1" source="xwnwmIlcDGT2qT4zZngP-55" target="xwnwmIlcDGT2qT4zZngP-60">
          <mxGeometry width="50" height="50" relative="1" as="geometry">
            <mxPoint x="620" y="630" as="sourcePoint" />
            <mxPoint x="670" y="580" as="targetPoint" />
          </mxGeometry>
        </mxCell>
        <mxCell id="xwnwmIlcDGT2qT4zZngP-63" value="( Refresh despuÃ©s de validar Email )" style="edgeLabel;html=1;align=center;verticalAlign=middle;resizable=0;points=[];" vertex="1" connectable="0" parent="xwnwmIlcDGT2qT4zZngP-62">
          <mxGeometry x="-0.0994" y="1" relative="1" as="geometry">
            <mxPoint x="22" y="44" as="offset" />
          </mxGeometry>
        </mxCell>
        <mxCell id="xwnwmIlcDGT2qT4zZngP-66" value="&lt;b&gt;&lt;font style=&quot;font-size: 20px;&quot;&gt;Pantalla de inicio de la aplicaciÃ³n&lt;/font&gt;&lt;/b&gt;" style="ellipse;whiteSpace=wrap;html=1;" vertex="1" parent="1">
          <mxGeometry x="80" y="780" width="210" height="110" as="geometry" />
        </mxCell>
        <mxCell id="xwnwmIlcDGT2qT4zZngP-67" value="" style="group" vertex="1" connectable="0" parent="1">
          <mxGeometry x="260.00122001998244" y="610.0001699201247" as="geometry" />
        </mxCell>
        <mxCell id="xwnwmIlcDGT2qT4zZngP-68" value="" style="group" vertex="1" connectable="0" parent="xwnwmIlcDGT2qT4zZngP-67">
          <mxGeometry as="geometry" />
        </mxCell>
        <mxCell id="xwnwmIlcDGT2qT4zZngP-64" value="" style="endArrow=classic;html=1;rounded=0;exitX=0.105;exitY=1.003;exitDx=0;exitDy=0;exitPerimeter=0;entryX=0.592;entryY=-0.012;entryDx=0;entryDy=0;entryPerimeter=0;" edge="1" parent="xwnwmIlcDGT2qT4zZngP-68" source="xwnwmIlcDGT2qT4zZngP-1" target="xwnwmIlcDGT2qT4zZngP-66">
          <mxGeometry width="50" height="50" relative="1" as="geometry">
            <mxPoint x="289.99877998001756" y="89.99983007987532" as="sourcePoint" />
            <mxPoint x="-0.00122001998244059" y="69.99983007987532" as="targetPoint" />
          </mxGeometry>
        </mxCell>
        <mxCell id="xwnwmIlcDGT2qT4zZngP-65" value="[ Email del Usuario validado ]&lt;br&gt;[ Usuario con displayName ]" style="edgeLabel;html=1;align=center;verticalAlign=middle;resizable=0;points=[];" vertex="1" connectable="0" parent="xwnwmIlcDGT2qT4zZngP-68">
          <mxGeometry as="geometry" />
        </mxCell>
        <mxCell id="xwnwmIlcDGT2qT4zZngP-69" value="" style="endArrow=classic;html=1;rounded=0;exitX=0.258;exitY=0.925;exitDx=0;exitDy=0;exitPerimeter=0;entryX=1;entryY=0.35;entryDx=0;entryDy=0;entryPerimeter=0;" edge="1" parent="1" source="xwnwmIlcDGT2qT4zZngP-60" target="xwnwmIlcDGT2qT4zZngP-66">
          <mxGeometry width="50" height="50" relative="1" as="geometry">
            <mxPoint x="540" y="720" as="sourcePoint" />
            <mxPoint x="590" y="670" as="targetPoint" />
          </mxGeometry>
        </mxCell>
        <mxCell id="xwnwmIlcDGT2qT4zZngP-70" value="DisplayName definido" style="edgeLabel;html=1;align=center;verticalAlign=middle;resizable=0;points=[];" vertex="1" connectable="0" parent="xwnwmIlcDGT2qT4zZngP-69">
          <mxGeometry x="-0.1456" y="1" relative="1" as="geometry">
            <mxPoint x="63" y="5" as="offset" />
          </mxGeometry>
        </mxCell>
      </root>
    </mxGraphModel>
  </diagram>
</mxfile>
